# xmcd
#
# Track frame offsets: 
#        150
#        19369
#        38872
#        55662
#        71057
#        91052
#        106002
#        119611
#        134687
#        148157
#        161720
#        175153
#        188609
#        201926
#        215297
#        228702
#        243647
#        262948
#        276219
#        291689
#        308797
#        320574
#        336146
#
# Disc length: 4746 seconds
#
# Revision: 0
# Processed by: cddbd v1.5.2PL0 Copyright (c) Steve Scherf et al.
# Submitted via: ExactAudioCopy v0.99pb5
#
DISCID=68128817
DTITLE=Claudia, Big Hand, Casino - Honky Tonk Night - The Best Of
DYEAR=2009
DGENRE=Country
TTITLE0=Honky Tonk Night
TTITLE1=Will The Circle Be Broken
TTITLE2=Fools Never Learn
TTITLE3=Hey Captain
TTITLE4=Love Sweet Love
TTITLE5=Light On The Mountain
TTITLE6=The Fire Of Two Old Flames
TTITLE7=Prisoners Of The Blues
TTITLE8=Thinking Back To My Younger Days
TTITLE9=We Can't Mend A Burnedout Candle
TTITLE10=Barroom Roses
TTITLE11=Trouble Again
TTITLE12=Ode To Nashville
TTITLE13=Cajun Invitation
TTITLE14=Swingin' Doors Again
TTITLE15=From Strangers To Sweethearts To Friends
TTITLE16=I Pray For The Circle
TTITLE17=The Dam's Gonna Break Tonight
TTITLE18=Faded Blue
TTITLE19=Such A Shame
TTITLE20=Women and Whiskey
TTITLE21=It's Hard To Be Blue (When You're Red)
TTITLE22=Gotta Serve Somebody
EXTD=
EXTT0=
EXTT1=
EXTT2=
EXTT3=
EXTT4=
EXTT5=
EXTT6=
EXTT7=
EXTT8=
EXTT9=
EXTT10=
EXTT11=
EXTT12=
EXTT13=
EXTT14=
EXTT15=
EXTT16=
EXTT17=
EXTT18=
EXTT19=
EXTT20=
EXTT21=
EXTT22=
PLAYORDER=
